<?xml version="1.0" standalone="no"?><!DOCTYPE svg PUBLIC "-//W3C//DTD SVG 1.1//EN" "http://www.w3.org/Graphics/SVG/1.1/DTD/svg11.dtd"><svg t="1768569650598" class="icon" viewBox="0 0 1024 1024" version="1.1" xmlns="http://www.w3.org/2000/svg" p-id="5651" xmlns:xlink="http://www.w3.org/1999/xlink" width="20" height="20"><path d="M757.3 909.7H179.7c-26.4 0-53.1-0.9-79.5 0h-1.1l18 18v-65.5-157.4-190.3-164.4c0-26.4 0.9-53.1 0-79.5v-1.1l-18 18h577.6c26.4 0 53.1 0.9 79.5 0h1.1l-18-18v577.6c0 26.5-0.5 53 0 79.5v1.1c0 9.4 8.3 18.4 18 18 9.8-0.4 18-7.9 18-18v-65.5-157.4-190.3-164.4c0-26.5 0.5-53 0-79.5v-1.1c0-9.7-8.2-18-18-18H179.7c-26.5 0-53-0.5-79.5 0h-1.1c-9.7 0-18 8.2-18 18v577.6c0 26.5-0.5 53 0 79.5v1.1c0 9.7 8.2 18 18 18h577.6c26.5 0 53 0.5 79.5 0h1.1c9.4 0 18.4-8.3 18-18-0.4-9.8-7.9-18-18-18z" fill="#1296db" p-id="5652"></path><path d="M285.9 211.4V109.6 95.2l-18 18h577.6c26.4 0 53.1 0.9 79.5 0h1.1l-18-18v577.6c0 26.4-0.9 53.1 0 79.5v1.1l18-18H815.4c-9.4 0-18.4 8.3-18 18 0.4 9.8 7.9 18 18 18h110.7c9.7 0 18-8.2 18-18v-65.5-157.4-190.3-164.4c0-26.5 0.5-53 0-79.5v-1.1c0-9.7-8.2-18-18-18H348.5c-26.5 0-53-0.5-79.5 0h-1.1c-9.7 0-18 8.2-18 18v116.2c0 9.4 8.3 18.4 18 18 9.7-0.5 18-7.9 18-18z" fill="#1296db" p-id="5653"></path></svg>