<svg xmlns="http://www.w3.org/2000/svg" viewBox="0 0 1200 800" width="1200" height="800">
  <rect width="1200" height="800" fill="#0d0d0d"/>
  <rect x="50" y="50" width="1100" height="700" fill="#1a1a1a" rx="20"/>
  <rect x="70" y="70" width="200" height="40" fill="#ff6b35" rx="8"/>
  <text x="170" y="95" fill="white" font-size="18" font-weight="bold" text-anchor="middle">Settings</text>
  <rect x="70" y="150" width="1060" height="80" fill="#2d2d2d" rx="10"/>
  <text x="100" y="195" fill="white" font-size="16" font-weight="bold">Email Notifications</text>
  <rect x="1000" y="170" width="100" height="40" fill="#ff6b35" rx="8"/>
  <text x="1050" y="195" fill="white" font-size="14" font-weight="bold" text-anchor="middle">ON</text>
  <rect x="70" y="250" width="1060" height="80" fill="#2d2d2d" rx="10"/>
  <text x="100" y="295" fill="white" font-size="16" font-weight="bold">Daily Reminder Time</text>
  <rect x="900" y="270" width="200" height="40" fill="#1a1a1a" rx="8"/>
  <text x="1000" y="295" fill="#888" font-size="14" text-anchor="middle">22:00</text>
  <rect x="70" y="350" width="1060" height="80" fill="#2d2d2d" rx="10"/>
  <text x="100" y="395" fill="white" font-size="16" font-weight="bold">Emergency Contact</text>
  <rect x="900" y="370" width="200" height="40" fill="#1a1a1a" rx="8"/>
  <text x="1000" y="395" fill="#888" font-size="14" text-anchor="middle">Add Contact</text>
  <rect x="70" y="450" width="1060" height="80" fill="#2d2d2d" rx="10"/>
  <text x="100" y="495" fill="white" font-size="16" font-weight="bold">Data Storage</text>
  <text x="1050" y="495" fill="#888" font-size="14" text-anchor="middle">Local Only</text>
</svg>