<?xml version="1.0" standalone="no"?><!DOCTYPE svg PUBLIC "-//W3C//DTD SVG 1.1//EN" "http://www.w3.org/Graphics/SVG/1.1/DTD/svg11.dtd"><svg t="1768569719829" class="icon" viewBox="0 0 1024 1024" version="1.1" xmlns="http://www.w3.org/2000/svg" p-id="7771" xmlns:xlink="http://www.w3.org/1999/xlink" width="20" height="20"><path d="M272 444.864l-36.864-29.824-47.424 58.624L128 425.344l142.4-175.872 59.712 48.32-47.488 58.624 33.92 27.456a287.872 287.872 0 0 1 132.48-79.36V256h-64V128h256v128H576.64v43.008a288.064 288.064 0 0 1-51.456 571.392A288 288 0 0 1 272 444.864z m253.12 350.4a212.864 212.864 0 1 0 0-425.728 212.864 212.864 0 0 0 0 425.728z" fill="#e6e6e6" p-id="7772"></path></svg>